# xmcd CD database file
#
# Track frame offsets:
#	150
#	13180
#	28765
#	43075
#	58725
#	77565
#	86965
#	100675
#	115760
#	129485
#	141595
#	154035
#	161432
#	176415
#	193410
#	206110
#
# Disc length: 2958 seconds
#
# Revision: 0
# Processed by: cddbd v1.5.2PL0 Copyright (c) Steve Scherf et al.
# Submitted via: CdAid (MTCDDB.DLL V2003.12.21)
#
DISCID=e10b8c10
DTITLE=Vários - Rei do Laço
DYEAR=2001
DGENRE=Country
TTITLE0=Rei do Gado
TTITLE1=Zé Capeta
TTITLE2=Canto Solidão
TTITLE3=Choveu na Minha Roça
TTITLE4=Chitãozinho and Xororó
TTITLE5=Hoje Acordei Chorando
TTITLE6=Chalana
TTITLE7=Galopeira
TTITLE8=Fazenda Campos Belo
TTITLE9=Tempero de Amor
TTITLE10=Solidão (Coração Dói)
TTITLE11=Rala e Rola
TTITLE12=Mate Amargo
TTITLE13=Agonia do Pantanal
TTITLE14=Meu Querido Pai
TTITLE15=Santa Maria do Brasil
EXTD=ID3G:   2 YEAR: 2001
EXTT0=
EXTT1=
EXTT2=
EXTT3=
EXTT4=
EXTT5=
EXTT6=
EXTT7=
EXTT8=
EXTT9=
EXTT10=
EXTT11=
EXTT12=
EXTT13=
EXTT14=
EXTT15=
PLAYORDER=
